# xmcd CD database file
#
# Track frame offsets:
#	150
#	6127
#	26102
#	42795
#	57052
#	70990
#	85810
#	95852
#	105752
#	121920
#	136045
#	151357
#	159645
#	172207
#	191945
#	206320
#	224027
#	240530
#	257522
#	281747
#	297195
#	310562
#
# Disc length: 4401 seconds
#
# Revision: 0
# Processed by: cddbd v1.5PL3 Copyright (c) Steve Scherf et al.
# Submitted via: CDex 1.51
#
DISCID=37112f16
DTITLE=Count Basie - America's #1 Band! - the Columbia Years - CD4
DYEAR=2003
DGENRE=Jazz
TTITLE0=One O'Clock Jump (Live) [Count Basie]
TTITLE1=Swingin' The Blues (Live) [Count Basie-Eddie Durham]
TTITLE2=Rock-A-Bye Basie (Live) [Count Basie-Shad Collins-Lester Young]
TTITLE3=Don't Worry 'Bout Me (Live) [Ted Koehler-Rube Bloom]
TTITLE4=Time Out (Live) [Edgar Battle-Eddie Durham]
TTITLE5=Boogie Woogie Blues (Live) [Clarence Smith]
TTITLE6=Roseland Shuffle (Live) [Count Basie]
TTITLE7=White Sails (Live) [Nick Kenny-Charles Kenny-Harry Archer]
TTITLE8=Clap Hands! Here Comes Charlie (Live) [Ballard MacDonald-Joseph Meyer-Billy Rose]
TTITLE9=One O'Clock Jump (Live) [Count Basie]
TTITLE10=They Can't Take That Away From Me (Live) [George and Ira Gershwin]
TTITLE11=Swing, Brother, Swing (Live) [Lewis Raymond-Walter Bishop-Clarence Williams]
TTITLE12=I Can't Get Started (Live) [Vernon Duke-Ira Gershwin]
TTITLE13=Moten Swing (Live) [Bennie and Buster Moten]
TTITLE14=Ebony Rhapsody (Live) [Sam Coslow-Arthur Johnston-Franz Lizst]
TTITLE15=Darn That Dream (Live) [Eddie DeLange-Jimmy Van Heusen]
TTITLE16=Take It, Pres (Live) [improvised instrumental - no composer credit]
TTITLE17=Baby, Don't Tell On Me (Live) [Count Basie-Lester Young-Jimmy Rushing]
TTITLE18=I Got Rhythm (Live) [George and Ira Gershwin]
TTITLE19=9:20 Special (Live) [Buster Harding-Earle Warren]
TTITLE20=Elmer's Tune (Live) [Dick Jurgens-Elmer Albrecht-Sammy Gallop]
TTITLE21=Jumpin' At The Woodside (Live) [Count Basie]
EXTD=YEAR: 2003
EXTT0=
EXTT1=
EXTT2=
EXTT3=
EXTT4=
EXTT5=
EXTT6=
EXTT7=
EXTT8=
EXTT9=
EXTT10=
EXTT11=
EXTT12=
EXTT13=
EXTT14=
EXTT15=
EXTT16=
EXTT17=
EXTT18=
EXTT19=
EXTT20=
EXTT21=
PLAYORDER=
